<svg xmlns="http://www.w3.org/2000/svg" viewBox="0 0 96 96">
  <path d="M28 16l-7 31 21-18z" fill="#9db1c7"/>
  <path d="M68 16l7 31-21-18z" fill="#9db1c7"/>
  <path d="M29 32c0-15 38-15 38 0v19c0 17-8 27-19 27S29 68 29 51z" fill="#aebdcd"/>
  <path d="M36 35c4-6 20-6 24 0" fill="none" stroke="#8ea0b4" stroke-width="4" stroke-linecap="round"/>
  <ellipse cx="48" cy="60" rx="16.5" ry="11.5" fill="#d8dee8"/>
  <circle cx="38.5" cy="49.5" r="3.2" fill="#2f3a44"/>
  <circle cx="57.5" cy="49.5" r="3.2" fill="#2f3a44"/>
  <ellipse cx="48" cy="58" rx="5.3" ry="4.4" fill="#2f3a44"/>
  <path d="M40 68c2.5-1.8 13.5-1.8 16 0" fill="none" stroke="#2f3a44" stroke-width="3" stroke-linecap="round"/>
  <path d="M55 77c9 4 16-8 10-15" fill="none" stroke="#f3aeb9" stroke-width="4" stroke-linecap="round"/>
  <path d="M64 62l4 8" fill="none" stroke="#f3aeb9" stroke-width="3" stroke-linecap="round"/>
  <path d="M23 24c4-1 8 1 10 4" fill="none" stroke="#8ea0b4" stroke-width="3" stroke-linecap="round"/>
  <path d="M73 24c-4-1-8 1-10 4" fill="none" stroke="#8ea0b4" stroke-width="3" stroke-linecap="round"/>
</svg>
