<svg xmlns="http://www.w3.org/2000/svg" viewBox="0 0 96 96">
  <path d="M27 28L18 9l20 11z" fill="#f4a7c8"/>
  <path d="M69 28l9-19-20 11z" fill="#f4a7c8"/>
  <path d="M28 31c0-18 40-18 40 0v17c0 18-9 29-20 29S28 66 28 48z" fill="#f7b7cf"/>
  <path d="M34 31c2-8 26-8 28 0" fill="none" stroke="#e58bb0" stroke-width="4" stroke-linecap="round"/>
  <ellipse cx="48" cy="59" rx="16" ry="11.5" fill="#f29abc"/>
  <ellipse cx="43" cy="59" rx="2.6" ry="4" fill="#88586a"/>
  <ellipse cx="53" cy="59" rx="2.6" ry="4" fill="#88586a"/>
  <circle cx="38.5" cy="47.5" r="3.2" fill="#4d313b"/>
  <circle cx="57.5" cy="47.5" r="3.2" fill="#4d313b"/>
  <path d="M41 68c2.8 2.2 11.2 2.2 14 0" fill="none" stroke="#88586a" stroke-width="3" stroke-linecap="round"/>
  <path d="M23 20c4 0 8 2 10 6" fill="none" stroke="#df83ac" stroke-width="3" stroke-linecap="round"/>
  <path d="M73 20c-4 0-8 2-10 6" fill="none" stroke="#df83ac" stroke-width="3" stroke-linecap="round"/>
</svg>
