<svg xmlns="http://www.w3.org/2000/svg" viewBox="0 0 96 96">
  <defs>
    <linearGradient id="poohFace" x1="0" y1="0" x2="0" y2="1">
      <stop offset="0%" stop-color="#ffd866"/>
      <stop offset="100%" stop-color="#eba934"/>
    </linearGradient>
  </defs>
  <path d="M29 26c-4-10 3-19 12-19 6 0 10 3 12 8" fill="#eca930"/>
  <path d="M67 26c4-10-3-19-12-19-6 0-10 3-12 8" fill="#eca930"/>
  <circle cx="30" cy="27" r="11" fill="#f0b43b"/>
  <circle cx="66" cy="27" r="11" fill="#f0b43b"/>
  <circle cx="48" cy="49" r="30" fill="url(#poohFace)"/>
  <path d="M31 70c5 9 29 9 34 0" fill="#d98231" opacity="0.18"/>
  <ellipse cx="48" cy="61" rx="17" ry="12.5" fill="#f9dfa3"/>
  <circle cx="37.5" cy="46.5" r="3.4" fill="#2b241b"/>
  <circle cx="58.5" cy="46.5" r="3.4" fill="#2b241b"/>
  <ellipse cx="48" cy="56.5" rx="5.6" ry="4.6" fill="#2b241b"/>
  <path d="M40 66c3 2.6 13 2.6 16 0" fill="none" stroke="#2b241b" stroke-width="3.2" stroke-linecap="round"/>
  <path d="M29 21c5-6 11-7 17-3" fill="none" stroke="#c9871d" stroke-width="3.4" stroke-linecap="round"/>
  <path d="M67 21c-5-6-11-7-17-3" fill="none" stroke="#c9871d" stroke-width="3.4" stroke-linecap="round"/>
</svg>
